<svg width="294" height="108" viewBox="0 0 294 108" fill="none" xmlns="http://www.w3.org/2000/svg">
<rect x="2" y="2" width="290" height="104" rx="23" stroke="white" stroke-width="4"/>
<path d="M196.166 31.3377V28.8589H203.377V31.3377H196.166Z" fill="white"/>
<path d="M207.433 28.8589L205.18 23H207.658L208.785 26.1548C209.236 25.2534 209.912 24.5774 210.813 23.9014C211.715 23.2253 212.616 23 213.743 23C214.869 23 215.771 23.2253 216.447 23.9014C217.123 24.3521 217.574 25.0281 218.024 26.1548C218.475 27.2815 218.475 28.8589 218.475 30.887V36.9713H211.264V34.9432H215.996V30.887C215.996 29.3096 215.996 28.1829 215.771 27.5069C215.771 26.8308 215.32 26.1548 215.095 25.7041C214.869 25.2534 214.193 25.0281 213.517 25.0281C212.616 25.0281 211.715 25.4788 211.039 26.6055C210.363 27.7322 209.687 29.3096 209.236 31.7884L208.334 36.9713H205.856L206.982 31.563C206.982 31.1123 207.208 30.211 207.433 28.8589Z" fill="white"/>
<path d="M241.01 25.2534H238.531V36.9713H236.052V25.2534H228.391V23H240.784V25.2534H241.01Z" fill="white"/>
<path d="M242.136 23.2253C243.488 23 244.615 23 245.741 23C248.671 23 250.473 23.4507 251.6 24.5774C252.727 25.7041 253.178 27.2815 253.178 29.5349V36.9713H250.924V30.211C250.924 28.8589 250.699 27.9575 250.473 27.2815C250.248 26.6055 249.572 26.1548 248.896 25.7041C248.22 25.2534 247.093 25.0281 245.741 25.0281C244.84 25.0281 243.713 25.0281 242.361 25.2534L242.136 23.2253Z" fill="white"/>
<path d="M259.938 23V36.9713H257.459V23H259.938Z" fill="white"/>
<path d="M263.769 23.4507C265.346 23.2253 266.923 23 268.275 23C271.205 23 273.233 23.4507 274.36 24.5774C275.486 25.7041 275.937 27.2815 275.937 29.5349V36.9713H273.458V30.211C273.458 28.8589 273.233 27.7322 273.008 27.0562C272.782 26.3801 272.106 25.9295 271.43 25.4788C270.529 25.2534 269.402 25.0281 268.05 25.0281C266.923 25.0281 265.571 25.2534 263.994 25.4788L263.769 23.4507ZM266.473 29.0843V36.9713H263.994V29.0843H266.473Z" fill="white"/>
<path fill-rule="evenodd" clip-rule="evenodd" d="M105.717 59.7266C105.499 59.5084 105.282 59.5084 105.282 59.2903C101.802 56.6731 98.1046 56.2369 94.1899 57.7636C90.2751 59.2903 88.1003 62.3438 87.6653 66.7059C87.0128 73.9034 92.8849 79.5741 100.062 78.7017C103.324 78.2655 105.717 76.9569 107.456 73.9034C107.891 72.8129 108.109 71.7224 108.544 70.6318C105.064 70.6318 101.802 70.6318 98.5396 70.6318C98.5396 69.3232 98.5396 68.0146 98.5396 66.4878C103.107 66.4878 107.891 66.4878 112.459 66.4878C112.894 68.4508 112.676 70.6318 112.241 72.5948C110.936 78.0474 106.587 81.9733 100.932 82.6276C95.9297 83.2819 91.3625 82.1914 87.6653 78.7017C79.6183 71.068 82.0107 57.9817 92.45 54.0558C98.1046 51.8748 103.324 52.5291 107.891 56.455C108.109 56.6731 108.326 56.8912 108.544 56.8912C107.674 57.7636 106.804 58.8541 105.717 59.7266Z" fill="white"/>
<path fill-rule="evenodd" clip-rule="evenodd" d="M157.696 85.8989C159 85.4626 160.088 84.8083 161.393 84.3721C161.828 84.8083 162.045 85.2445 162.263 85.8989C163.568 87.6437 165.96 88.298 168.135 87.6437C170.092 86.9894 171.397 85.2445 171.397 83.0635C171.397 82.4092 171.397 81.7549 171.397 80.8825C170.962 81.3187 170.527 81.5368 170.31 81.7549C167.7 83.4997 163.785 83.4997 160.958 81.3187C157.696 78.9195 156.173 75.648 157.043 71.504C157.913 67.36 160.523 64.7428 164.655 63.8704C167.265 63.2161 169.44 63.8704 171.615 65.8333C171.615 65.179 171.615 64.7428 171.615 64.3066C172.92 64.3066 174.225 64.3066 175.529 64.3066C175.529 64.5247 175.529 64.7428 175.529 64.7428C175.529 70.8497 175.529 76.7385 175.529 82.8454C175.529 87.4256 172.702 90.479 168.57 91.5695C164.22 92.442 159.87 90.479 157.913 86.5532C157.913 86.3351 157.696 86.117 157.696 85.8989ZM171.832 73.2488C171.832 72.5945 171.832 72.1583 171.615 71.504C171.18 69.5411 169.875 68.0143 167.917 67.5781C165.96 66.9238 164.22 67.5781 162.698 68.8868C160.523 71.0678 160.523 75.2118 162.698 77.3928C164.655 79.5738 167.917 79.5738 170.092 77.6109C171.397 76.5204 171.832 74.9937 171.832 73.2488Z" fill="white"/>
<path fill-rule="evenodd" clip-rule="evenodd" d="M216.634 71.5043C216.634 75.2121 216.634 78.7017 216.634 82.1914C215.111 82.1914 213.807 82.1914 212.284 82.1914C212.284 72.8129 212.284 63.2164 212.284 53.8379C212.502 53.8379 212.502 53.8379 212.719 53.8379C216.416 53.8379 220.114 53.8379 223.811 53.8379C227.508 54.056 230.988 56.8913 231.858 60.5991C232.945 65.3974 230.335 69.7595 225.551 71.0681C224.463 71.2862 223.376 71.5043 222.071 71.5043C220.331 71.5043 218.591 71.5043 216.634 71.5043ZM216.851 57.7638C216.851 61.0353 216.851 64.3069 216.851 67.3603C219.026 67.3603 221.201 67.3603 223.158 67.3603C225.551 67.3603 227.726 65.1793 227.943 62.7802C227.943 60.1629 226.203 57.7638 223.593 57.7638C221.201 57.7638 219.026 57.7638 216.851 57.7638Z" fill="white"/>
<path fill-rule="evenodd" clip-rule="evenodd" d="M245.343 69.3229C244.038 68.8867 242.95 68.2324 241.645 67.7962C242.298 66.4876 243.168 65.397 244.473 64.7427C247.735 62.9979 251.215 62.9979 254.477 64.7427C256.869 66.0513 257.957 68.0143 257.957 70.6316C257.957 74.3394 257.957 78.2653 257.957 82.1911C256.652 82.1911 255.347 82.1911 253.825 82.1911C253.825 81.5368 253.825 80.8825 253.825 80.2282C253.825 80.2282 253.607 80.2282 253.607 80.0101V80.2282C250.997 83.936 244.908 83.2817 242.515 80.2282C240.558 77.6109 240.993 73.9031 243.603 72.1583C246.647 69.9772 249.91 69.7591 253.39 70.8497C253.607 70.8497 253.824 71.0678 254.042 71.0678C254.259 69.7591 253.39 68.4505 251.867 67.5781C249.257 66.7057 247.082 67.36 245.343 69.3229ZM248.822 79.1377C251.215 79.1377 253.39 77.3928 253.825 74.9937C253.825 74.7756 253.607 74.3394 253.39 74.3394C252.737 74.1212 251.867 73.685 251.215 73.685C249.475 73.4669 247.952 73.4669 246.43 74.5575C245.56 75.2118 245.343 75.8661 245.343 76.9566C245.56 77.829 245.995 78.4834 246.865 78.7015C247.517 78.9196 248.17 78.9196 248.822 79.1377Z" fill="white"/>
<path fill-rule="evenodd" clip-rule="evenodd" d="M145.299 82.8455C139.644 82.8455 135.512 78.7015 135.512 73.2488C135.512 67.7962 139.861 63.4341 145.299 63.4341C150.736 63.4341 155.085 67.7962 155.085 73.2488C155.085 78.7015 150.736 82.8455 145.299 82.8455ZM150.736 73.0307C150.736 70.8497 149.866 69.1048 147.691 68.0143C145.734 66.9238 143.776 67.1419 142.036 68.4505C139.426 70.1953 138.991 74.1212 140.949 76.9566C142.689 79.3558 145.734 80.0101 148.126 78.4834C149.866 77.1747 150.736 75.4299 150.736 73.0307Z" fill="white"/>
<path fill-rule="evenodd" clip-rule="evenodd" d="M113.981 73.249C113.981 67.7963 118.331 63.6523 123.768 63.6523C129.205 63.6523 133.555 67.7963 133.555 73.4671C133.555 78.9197 129.205 83.0637 123.768 83.0637C118.114 82.8456 113.981 78.7016 113.981 73.249ZM118.114 73.249C118.114 73.6852 118.114 74.1214 118.331 74.5576C118.984 77.6111 121.811 79.574 124.638 78.9197C127.031 78.4835 128.553 76.7387 128.988 74.1214C129.64 70.8498 127.248 67.5782 124.203 67.3601C120.941 67.142 118.331 69.7593 118.114 73.249Z" fill="white"/>
<path fill-rule="evenodd" clip-rule="evenodd" d="M202.933 70.8498C198.583 72.5947 194.234 74.3395 189.884 76.0844C190.971 79.356 196.408 80.6646 199.453 76.3025C200.541 76.9568 201.628 77.6111 202.716 78.4835C202.281 78.9197 201.846 79.5741 201.411 80.0103C198.583 82.6275 195.321 83.2819 191.624 82.1913C187.927 81.1008 185.752 78.4835 185.099 74.9938C184.012 69.7593 187.057 64.5248 192.276 63.4342C196.408 62.5618 200.323 64.5248 202.063 68.6688C202.498 69.5412 202.716 70.1955 202.933 70.8498ZM197.931 69.3231C197.278 67.5783 195.104 66.9239 192.929 67.5783C190.536 68.4507 188.796 70.8498 189.449 72.8128C192.276 71.7223 195.104 70.6317 197.931 69.3231Z" fill="white"/>
<path fill-rule="evenodd" clip-rule="evenodd" d="M261.654 90.9157C262.741 88.5165 263.828 86.3355 264.698 84.1544C265.133 83.282 265.786 82.1915 265.786 81.319C265.786 80.4466 265.133 79.3561 264.698 78.4837C262.741 73.9035 260.784 69.5413 258.609 64.9611C258.391 64.743 258.391 64.3068 258.174 64.0887C259.696 64.0887 261.001 64.0887 262.524 64.0887C262.741 64.0887 262.959 64.5249 263.176 64.743C264.698 68.4508 266.221 71.9405 267.743 75.6483C267.743 75.8664 267.961 76.0845 268.178 76.5207C268.613 75.6483 268.831 74.994 269.048 74.3397C270.353 71.0681 271.658 67.7965 272.963 64.5249C273.18 64.0887 273.398 63.8706 273.833 63.8706C275.138 63.8706 276.443 63.8706 277.965 63.8706C277.748 64.0887 277.748 64.5249 277.748 64.743C274.05 73.2491 270.353 81.5371 266.656 90.0433C266.438 90.6976 266.003 90.9157 265.568 90.6976C264.046 90.9157 262.959 90.9157 261.654 90.9157Z" fill="white"/>
<path fill-rule="evenodd" clip-rule="evenodd" d="M178.574 53.8379C180.097 53.8379 181.402 53.8379 182.924 53.8379C182.924 63.4345 182.924 72.8129 182.924 82.1914C181.402 82.1914 180.097 82.1914 178.574 82.1914C178.574 72.8129 178.574 63.4345 178.574 53.8379Z" fill="white"/>
<path fill-rule="evenodd" clip-rule="evenodd" d="M238.6 82.4092C237.295 82.4092 235.773 82.4092 234.468 82.4092C234.468 73.0307 234.468 63.4341 234.468 54.0557C235.773 54.0557 237.078 54.0557 238.6 54.0557C238.6 63.4341 238.6 72.8126 238.6 82.4092Z" fill="white"/>
<g clip-path="url(#clip0)">
<path d="M66.9071 65.7423L54.3352 59.2207L45.4482 68.1336L53.9017 76.6117L66.9071 69.8727C69.0747 68.5684 69.0747 66.8293 66.9071 65.7423Z" fill="white"/>
<path d="M19.0342 93.7851C19.6844 94.4373 20.7682 94.4373 22.0688 93.7851L51.3308 78.568L42.8774 70.0898L19.0342 93.7851Z" fill="white"/>
<path d="M18.8174 41.6121L42.6606 65.5248L51.5476 56.6119L22.0687 41.3948C20.5514 40.7426 19.4677 40.96 18.8174 41.6121Z" fill="white"/>
<path d="M16.6503 43.7861C16.2168 44.4383 16 45.0905 16 45.96V89.4378C16 90.5247 16.4335 91.1769 16.867 91.6117L40.4934 67.9163L16.6503 43.7861Z" fill="white"/>
</g>
<defs>
<clipPath id="clip0">
<rect width="52.0215" height="53.2603" fill="white" transform="translate(16 40.96)"/>
</clipPath>
</defs>
</svg>
