<svg width="294" height="108" viewBox="0 0 294 108" fill="none" xmlns="http://www.w3.org/2000/svg">
  <path fill-rule="evenodd" clip-rule="evenodd" d="M146.6 76.8735C146.6 80.4735 146.6 84.0735 146.6 87.6735C146.2 87.6735 142.8 87.8735 142 87.6735C142 87.4735 142 87.2735 142 87.2735C142 84.2735 142 81.2735 142 78.2735C142 73.6735 142 69.2735 142 64.6735C142 62.6735 142 60.4735 141.8 58.4735C142 58.4735 145 58.2735 145.8 58.4735C145.8 59.4735 146 60.6735 146 61.6735C146 61.4735 146.2 61.4735 146.2 61.2735C147.6 59.0735 149.8 58.0735 152.4 57.8735C153.6 57.8735 155 57.8735 156.2 58.4735C157.8 59.0735 159 60.2735 160 61.6735C160.8 63.0735 161.4 64.4735 161.6 66.0735C161.8 68.0735 161.8 70.0735 161.4 72.0735C161 73.8735 160.2 75.6735 158.8 77.0735C157.4 78.4735 155.6 79.4735 153.6 79.6735C152.4 79.8735 151.4 79.6735 150.2 79.4735C148.8 79.0735 147.8 78.2735 147 77.2735C147 77.0735 146.8 77.0735 146.6 76.8735C146.8 76.8735 146.6 76.8735 146.6 76.8735ZM146.6 69.0735C146.6 69.8735 146.6 70.4735 146.6 71.2735C146.6 71.4735 146.6 71.6735 146.6 71.6735C147 74.2735 148.8 76.0735 151.4 76.0735C152.8 76.0735 154 75.6735 155 74.6735C155.6 74.0735 156.2 73.0735 156.4 72.2735C157 70.0735 157.2 68.0735 156.6 65.8735C156.2 64.6735 155.6 63.4735 154.6 62.6735C152.6 61.0735 149.6 61.4735 147.8 63.2735C146.8 64.2735 146.4 65.6735 146.4 67.0735C146.6 67.8735 146.6 68.4735 146.6 69.0735Z" fill="white"/>
  <path fill-rule="evenodd" clip-rule="evenodd" d="M122 58.4732C122 59.4732 122.2 60.6732 122.2 61.6732C122.4 61.4732 122.4 61.4732 122.4 61.4732C123.6 59.6732 125.2 58.4732 127.4 58.2732C129.8 57.8732 132.2 58.2732 134.2 59.8732C135.6 61.0732 136.6 62.4732 137.2 64.0732C137.8 65.8732 138 67.6732 138 69.4732C138 70.8732 137.8 72.0732 137.4 73.2732C136.6 75.4732 135.4 77.2732 133.4 78.6732C132 79.4732 130.6 79.8732 129 80.0732C128 80.0732 127.2 80.0732 126.2 79.6732C124.8 79.2732 123.8 78.4732 123 77.4732C123 77.2732 122.8 77.2732 122.6 77.0732C122.6 77.2732 122.6 77.2732 122.6 77.4732C122.6 80.8732 122.6 84.0732 122.6 87.4732C122.6 87.6732 122.6 87.8732 122.6 88.0732C121 88.0732 119.6 88.0732 118 88.0732C118 87.8732 118 87.6732 118 87.6732C118 83.8732 118 80.0732 118 76.0732C118 72.4732 118 68.8732 118 65.2732C118 63.2732 118 61.0732 117.8 59.0732V58.8732C118.2 58.4732 121.6 58.4732 122 58.4732ZM122.6 69.0732C122.6 69.6732 122.6 70.0732 122.6 70.6732C122.6 71.0732 122.6 71.4732 122.8 71.8732C123.2 74.0732 125 76.4732 128.4 76.0732C129.8 75.8732 131 75.2732 131.8 74.0732C132.2 73.4732 132.6 72.6732 132.8 71.8732C133.2 70.2732 133.4 68.8732 133.2 67.2732C133 66.0732 132.8 65.0732 132 64.0732C131 62.6732 129.6 61.8732 128 61.8732C125.8 61.8732 124.2 63.0732 123.4 64.8732C123 65.6732 122.8 66.6732 122.8 67.4732C122.6 68.0732 122.6 68.4732 122.6 69.0732Z" fill="white"/>
  <path fill-rule="evenodd" clip-rule="evenodd" d="M114.001 79.2731C112.401 79.2731 110.601 79.2731 109.001 79.2731C108.201 76.4731 107.201 73.6731 106.401 70.8731C103.201 70.8731 100.201 70.8731 97.0006 70.8731C96.2006 73.6731 95.2006 76.4731 94.4006 79.2731C92.8006 79.2731 91.2006 79.2731 89.6006 79.2731C92.6006 69.6731 95.8006 60.2731 98.8006 50.6731C98.8006 50.6731 98.8006 50.4731 99.0006 50.4731C101.001 50.4731 102.801 50.4731 104.801 50.4731C107.801 60.0731 110.801 69.6731 114.001 79.2731ZM105.401 67.2731C105.201 66.4731 105.001 65.8731 104.601 65.0731C104.401 64.2731 104.201 63.6731 104.001 62.8731C103.801 62.0731 103.601 61.4731 103.401 60.6731C103.201 59.8731 103.001 59.2731 102.801 58.4731C102.601 57.6731 102.401 57.0731 102.201 56.2731C102.001 55.4731 101.801 54.8731 101.601 54.0731C101.401 54.2731 101.401 54.2731 101.401 54.4731C101.001 56.2731 100.601 57.8731 100.001 59.6731C99.4006 62.0731 98.6006 64.2731 97.8006 66.4731C97.8006 66.6731 97.8006 66.6731 97.6006 66.8731C100.401 67.2731 102.801 67.2731 105.401 67.2731Z" fill="white"/>
  <path fill-rule="evenodd" clip-rule="evenodd" d="M187.799 51.2735C187.399 52.4735 186.999 53.8735 186.599 55.0735C186.399 55.0735 186.399 55.0735 186.199 54.8735C184.399 53.8735 182.399 53.6735 180.199 53.6735C179.399 53.6735 178.399 53.8735 177.599 54.4735C175.599 55.6735 175.199 58.6735 176.999 60.2735C177.799 60.8735 178.599 61.2735 179.399 61.6735C180.399 62.0735 181.399 62.4735 182.199 62.8735C183.599 63.4735 184.799 64.0735 185.799 65.0735C187.599 66.4735 188.399 68.4735 188.599 70.6734C188.599 72.4734 188.399 74.0734 187.399 75.4734C186.399 77.0734 184.799 78.2734 182.799 78.8734C181.599 79.2734 180.199 79.4734 178.799 79.4734C177.199 79.4734 175.399 79.4734 173.799 79.0734C172.799 78.8734 171.799 78.4734 170.799 77.8734C170.599 77.8734 170.599 77.6734 170.399 77.6734C170.799 76.4734 170.999 75.0734 171.399 73.8734C171.599 73.8734 171.599 74.0734 171.799 74.0734C173.599 75.0734 175.599 75.6734 177.799 75.6734C178.799 75.6734 179.799 75.6734 180.799 75.2734C181.799 74.8734 182.799 74.2734 183.199 73.0734C183.799 71.6734 183.799 69.4734 182.199 68.0735C181.199 67.2735 180.199 66.6735 178.999 66.2735C177.999 65.8735 176.999 65.4735 175.999 65.0735C174.599 64.4735 173.399 63.4735 172.399 62.4735C170.999 60.8735 170.599 59.0735 170.799 57.0735C170.999 55.2735 171.799 53.6735 172.999 52.4735C174.399 51.2736 175.799 50.4736 177.599 50.0736C179.199 49.6736 180.599 49.6736 182.199 49.8736C183.599 50.0736 184.799 50.2736 186.199 50.6736C187.199 51.0736 187.399 51.0736 187.799 51.2735Z" fill="white"/>
  <path fill-rule="evenodd" clip-rule="evenodd" d="M227.2 68.8732C227.2 70.4731 227 72.0731 226.2 73.6731C224.8 76.8731 222.4 78.8731 218.8 79.6731C217 80.0731 215.2 79.8731 213.4 79.4731C210.8 78.6731 209 77.0731 207.8 74.6731C207 73.0731 206.6 71.2731 206.6 69.4732C206.6 67.8732 206.8 66.2732 207.2 64.6732C208.2 61.8732 210 59.6732 213 58.6732C214.2 58.2732 215.4 58.0732 216.6 58.0732C217.8 58.0732 219 58.0732 220.2 58.4732C223.4 59.4732 225.4 61.4732 226.4 64.4732C227 65.8732 227.2 67.2732 227.2 68.8732ZM222.4 68.8732C222.4 68.2732 222.4 67.8732 222.2 67.2732C222 65.8732 221.6 64.4732 220.6 63.2732C219.8 62.0732 218.6 61.4732 217.2 61.2732C215.2 61.0732 213.8 61.8732 212.8 63.4732C212.4 64.0732 212.2 64.6732 212 65.2732C211.4 67.0732 211.4 69.0732 211.8 71.0731C212 72.2731 212.4 73.2731 213.2 74.2731C214.4 76.0731 216.4 76.4731 218.2 76.0731C219.4 75.6731 220.2 75.0731 221 73.8731C222 72.4731 222.4 70.6731 222.4 68.8732Z" fill="white"/>
  <path fill-rule="evenodd" clip-rule="evenodd" d="M263 70.0731C260.6 70.0731 258.4 70.0731 256 70.0731C253.6 70.0731 251.4 70.0731 249 70.0731C249 72.6731 250.4 75.0731 253.2 75.8731C254.4 76.2731 255.6 76.2731 256.8 76.0731C258.2 75.8731 259.6 75.6731 260.8 75.2731C260.8 75.2731 260.8 75.2731 261 75.2731C261.2 76.2731 261.4 77.4731 261.8 78.4731C261.2 78.6731 260.8 78.8731 260.2 79.0731C258.6 79.673 256.8 79.673 255.2 79.873C253.8 79.873 252.6 79.873 251.2 79.4731C248 78.4731 245.8 76.4731 244.8 73.2731C243.8 70.0731 244 66.8732 245.4 63.6732C246.4 61.6732 247.8 60.0732 249.8 59.0732C251 58.4732 252.2 58.2732 253.6 58.0732C254.6 58.0732 255.8 58.0732 256.8 58.4732C258.8 59.0732 260.2 60.2732 261.4 62.0732C262.2 63.4732 262.6 65.0732 262.8 66.6732C262.8 67.6732 262.8 68.4732 262.8 69.4731C263 69.4731 263 69.6731 263 70.0731ZM258.8 66.6732C258.8 66.0732 258.6 65.4732 258.6 65.0732C258.4 64.0732 258 63.0732 257 62.2732C255.6 61.0732 253 60.8732 251.4 62.0732C250.2 62.8732 249.6 64.0732 249.2 65.4732C249 65.8732 249 66.2732 249 66.6732C252.2 66.6732 255.4 66.6732 258.8 66.6732Z" fill="white"/>
  <path fill-rule="evenodd" clip-rule="evenodd" d="M199 58.4732C200.8 58.4732 202.4 58.4732 204.2 58.4732C204.2 59.6732 204.2 60.6732 204.2 61.8732C202.6 61.8732 200.8 61.8732 199 61.8732C199 62.0732 199 62.2732 199 62.2732C199 65.4732 199 68.6732 199 71.8732C199 72.6732 199 73.2732 199.2 74.0732C199.6 75.2732 200.4 75.8732 201.6 75.8732C202.2 75.8732 203 75.8732 203.6 75.6732C203.6 76.8732 203.6 77.8732 203.8 79.0732C203.4 79.2732 202.8 79.4732 202.4 79.4732C201.4 79.6732 200.2 79.6732 199 79.4732C196.8 79.0732 195.2 77.8732 194.6 75.4732C194.4 74.4732 194.2 73.4732 194.2 72.4732C194.2 69.0732 194.2 65.6732 194.2 62.2732C194.2 62.0732 194.2 61.8732 194.2 61.6732C193.6 61.6732 193.2 61.6732 192.6 61.6732C192.2 61.6732 191.6 61.6732 191.2 61.6732C191.2 60.4732 191.2 59.2732 191.2 58.2732C192.2 58.2732 193.2 58.2732 194.2 58.2732C194.2 56.8732 194.2 55.6732 194.2 54.4732C195.8 54.0732 197.2 53.4732 198.8 53.0732C199 54.8732 199 56.6732 199 58.4732Z" fill="white"/>
  <path fill-rule="evenodd" clip-rule="evenodd" d="M236 79.2732C234.4 79.2732 233 79.2732 231.4 79.2732C231.4 77.4732 231.4 75.8732 231.4 74.0732C231.4 72.2732 231.4 70.6732 231.4 68.8732C231.4 67.0732 231.4 65.4732 231.4 63.6732C231.4 61.8732 231.4 60.2732 231.2 58.4732C232.6 58.4732 233.8 58.4732 235.2 58.4732C235.4 59.6732 235.2 61.0732 235.4 62.4732C235.6 62.4732 235.6 62.2732 235.6 62.0732C236 61.0732 236.6 60.0732 237.6 59.2732C238.8 58.4732 240 58.0732 241.4 58.0732C241.6 58.0732 242 58.0732 242.2 58.0732C242.2 59.4732 242.2 61.0732 242.2 62.4732C241.8 62.4732 241.4 62.4732 241 62.2732C239.2 62.2732 237.8 62.8732 236.8 64.2732C236.4 64.8732 236.2 65.4732 236 66.0732C235.8 66.8732 235.8 67.6732 235.8 68.4732C235.8 71.8732 235.8 75.2732 235.8 78.8732C236 78.8732 236 79.0732 236 79.2732Z" fill="white"/>
  <path fill-rule="evenodd" clip-rule="evenodd" d="M70.2 65.0734C70 65.4734 70 65.8734 69.8 66.0734C69 68.4734 67.8 70.6734 66.4 72.6734C65.6 73.8734 64.8 75.0734 63.8 76.2734C63.2 77.0734 62.4 77.6734 61.8 78.2734C59.8 79.6734 57.8 80.0733 55.6 79.4733C54.8 79.2733 54 78.8734 53.2 78.6734C52.2 78.2734 51.4 77.8734 50.4 77.8734C48.6 77.6734 46.6 77.6734 44.8 78.4734C44 78.6734 43.4 79.0734 42.6 79.2733C41.8 79.6734 40.8 79.8733 39.8 79.8733C38.4 80.0733 37 79.4734 35.8 78.6734C34.6 77.8734 33.8 76.8734 32.8 75.8734C31.2 73.8734 29.8 71.8734 28.6 69.6734C27.2 66.8734 26 63.8734 25.4 60.6734C25.2 58.2734 25 55.8735 25 53.4735C25.2 50.0735 26 46.8735 27.8 44.0735C29.8 41.0735 32.6 39.0735 36 38.2735C38.2 37.6735 40.4 37.8735 42.6 38.6735C43.6 39.0735 44.6 39.4735 45.4 39.8735C46 40.0735 46.4 40.2735 47 40.2735C47.6 40.4735 48 40.4735 48.6 40.2735C49.6 39.8735 50.6 39.6735 51.6 39.2735C53 38.6735 54.4 38.2735 55.8 38.0735C56.8 37.8735 57.6 37.8735 58.6 37.8735C60.8 38.0735 62.8 38.6735 64.8 39.6735C66.2 40.4735 67.4 41.6735 68.4 43.0735L68.6 43.2735C68.6 43.2735 68.6 43.2735 68.6 43.4735L68.4 43.6735C66.6 44.8735 65.2 46.4735 64 48.4735C63.2 49.8735 62.8 51.4735 62.6 53.2735C62.4 56.0735 63 58.6734 64.6 60.8734C65.8 62.6734 67.6 64.0734 69.6 65.0734C70 64.8734 70 65.0734 70.2 65.0734Z" fill="white"/>
  <path fill-rule="evenodd" clip-rule="evenodd" d="M47.6004 37.0732C47.4004 36.0733 47.6004 34.8733 47.8004 34.0733C49.0004 29.0734 52.4004 25.8734 57.4004 24.4734C57.6004 24.2734 58.0004 24.2734 58.4004 24.2734H58.6004C58.6004 24.8734 58.6004 25.2734 58.6004 25.8734C58.4004 29.2734 56.4004 33.8733 52.2004 35.8733C50.8004 36.4733 49.4004 37.0732 48.0004 36.8732C47.8004 37.0732 47.6004 37.0732 47.6004 37.0732Z" fill="white"/>
  <path d="M190.4 31.8733V29.6733H196.8V31.8733H190.4Z" fill="white"/>
  <path d="M200.4 29.6731L198.4 24.4731H200.6L201.6 27.2731C202 26.4731 202.6 25.8731 203.4 25.2731C204.2 24.6731 205 24.4731 206 24.4731C207 24.4731 207.8 24.6731 208.4 25.2731C209 25.6731 209.4 26.2731 209.8 27.2731C210.2 28.2731 210.2 29.6731 210.2 31.4731V36.8731H203.8V35.0731H208V31.4731C208 30.0731 208 29.0731 207.8 28.4731C207.8 27.8731 207.4 27.2731 207.2 26.8731C207 26.4731 206.4 26.2731 205.8 26.2731C205 26.2731 204.2 26.6731 203.6 27.6731C203 28.6731 202.4 30.0731 202 32.2731L201.2 36.8731H199L200 32.0731C200 31.6731 200.2 30.8731 200.4 29.6731Z" fill="white"/>
  <path d="M230.2 26.4731H228V36.8731H225.8V26.4731H219V24.4731H230V26.4731H230.2Z" fill="white"/>
  <path d="M231.2 24.6731C232.4 24.4731 233.4 24.4731 234.4 24.4731C237 24.4731 238.6 24.8731 239.6 25.8731C240.6 26.8731 241 28.2731 241 30.2731V36.8731H239V30.8731C239 29.6731 238.8 28.8731 238.6 28.2731C238.4 27.6731 237.8 27.2731 237.2 26.8731C236.6 26.4731 235.6 26.2731 234.4 26.2731C233.6 26.2731 232.6 26.2731 231.4 26.4731L231.2 24.6731Z" fill="white"/>
  <path d="M247 24.4731V36.8731H244.8V24.4731H247Z" fill="white"/>
  <path d="M250.4 24.8731C251.8 24.6731 253.2 24.4731 254.4 24.4731C257 24.4731 258.8 24.8731 259.8 25.8731C260.8 26.8731 261.2 28.2731 261.2 30.2731V36.8731H259V30.8731C259 29.6731 258.8 28.6731 258.6 28.0731C258.4 27.4731 257.8 27.0731 257.2 26.6731C256.4 26.4731 255.4 26.2731 254.2 26.2731C253.2 26.2731 252 26.4731 250.6 26.6731L250.4 24.8731ZM252.8 29.8731V36.8731H250.6V29.8731H252.8Z" fill="white"/>
  <rect x="2" y="2" width="290" height="104" rx="23" stroke="white" stroke-width="4"/>
</svg>
