<svg width="159" height="60" viewBox="0 0 159 60" fill="none" xmlns="http://www.w3.org/2000/svg">
  <path fill-rule="evenodd" clip-rule="evenodd" d="M134.1 19.4998C137.7 16.4998 141.5 14.9998 145.9 15.6998C153.8 16.8998 159.7 24.4998 158.6 34.1998C157.7 42.1998 152.6 47.4998 145.4 48.6998C142.1 49.1998 139.5 48.3998 134.1 45.0998C134.1 49.8998 134.1 54.5998 134.1 59.2998C131.3 59.2998 128.8 59.2998 126.2 59.2998C126.2 44.9998 126.2 30.8998 126.2 16.4998C128.8 16.4998 131.2 16.4998 133.8 16.4998C133.8 17.2998 133.9 18.1998 134.1 19.4998ZM133.5 31.9998C133.5 37.4998 137.1 41.3998 142.1 41.3998C147 41.3998 150.6 37.3998 150.6 31.9998C150.6 26.5998 147 22.6998 142 22.6998C137.1 22.7998 133.6 26.5998 133.5 31.9998Z" fill="white"/>
  <path fill-rule="evenodd" clip-rule="evenodd" d="M87 16.4C89.6 16.4 92 16.4 94.6 16.4C94.7 17.4 94.7 18.2 94.8 19.1C96.9 18.1 98.8 16.7 101 16.1C107.1 14.3 113.5 16.8 116.9 22.6C120.5 28.7 120.6 35.1 117.1 41.3C113 48.4 103.6 52.1 94.9 45C94.9 49.9 94.9 54.5 94.9 59.3C92.2 59.3 89.7 59.3 87.1 59.3C87 45 87 30.8 87 16.4ZM111.6 32.1C111.6 26.8 108 22.8 103 22.8C98 22.8 94.3 26.7 94.3 32C94.3 37.5 97.9 41.5 102.9 41.5C107.8 41.4 111.5 37.4 111.6 32.1Z" fill="white"/>
  <path fill-rule="evenodd" clip-rule="evenodd" d="M70.7996 19.5001C70.8996 18.3001 70.8996 17.4001 70.9996 16.4001C73.4996 16.4001 75.9996 16.4001 78.5996 16.4001C78.5996 26.8001 78.5996 37.2001 78.5996 47.7001C76.0996 47.7001 73.5996 47.7001 70.9996 47.7001C70.8996 46.8001 70.8996 45.9001 70.7996 45.2001C68.5996 46.2001 66.4996 47.7001 64.2996 48.2001C55.7996 50.2001 47.2996 43.8001 46.2996 34.8001C45.6996 29.5001 46.4996 24.5001 50.2996 20.3001C55.4996 14.6001 63.1996 13.8001 69.3996 18.4001C69.7996 18.7001 70.1996 19.0001 70.7996 19.5001ZM54.0996 32.0001C54.0996 37.4001 57.6996 41.4001 62.5996 41.4001C67.5996 41.5001 71.3996 37.5001 71.3996 32.1001C71.3996 26.8001 67.7996 22.9001 62.7996 22.8001C57.7996 22.7001 54.0996 26.7001 54.0996 32.0001Z" fill="white"/>
  <path fill-rule="evenodd" clip-rule="evenodd" d="M5.9 13.2C11.3 18.6 16.9 24.2 22.6 29.9C32.7 19.8 42.6 9.9 52.5 0C54.7 2.3 56.6 4.3 58.4 6.2C46.6 18 34.6 29.9 22.9 41.7C15.4 34.1 7.7 26.4 0 18.8C1.7 17.2 3.7 15.2 5.9 13.2Z" fill="white"/>
  <path fill-rule="evenodd" clip-rule="evenodd" d="M19.0996 40.1002C20.1996 41.5002 21.2996 43.0002 22.7996 45.0002C24.2996 43.1002 25.4996 41.6002 26.9996 39.7002C26.9996 46.6002 26.9996 52.8002 26.9996 59.2002C24.1996 59.2002 21.4996 59.2002 18.5996 59.2002C18.5996 53.0002 18.5996 46.7002 18.5996 40.5002C18.7996 40.4002 18.8996 40.2002 19.0996 40.1002Z" fill="white"/>
</svg>
